<svg width="32" height="32" viewBox="0 0 32 32" fill="none" xmlns="http://www.w3.org/2000/svg">
  <rect width="32" height="32" rx="6" fill="#122234"/>
  <path d="M9 21.5V10.5H14.25C16.15 10.5 17.63 11 18.7 12C19.78 13 20.31 14.34 20.31 16.02C20.31 17.69 19.78 19.02 18.7 20.02C17.63 21.01 16.15 21.5 14.25 21.5H9ZM11.65 19.25H14.16C15.25 19.25 16.09 18.96 16.68 18.38C17.27 17.8 17.56 17.01 17.56 16.02C17.56 15.02 17.27 14.23 16.68 13.65C16.09 13.06 15.25 12.77 14.16 12.77H11.65V19.25Z" fill="white"/>
  <path d="M20.72 21.5L24.52 10.5H27.11L23.31 21.5H20.72Z" fill="#25B876"/>
</svg>
